{
	"asset":{
		"version":"2.0",
		"generator":"Created using the official Cinema 4D glTF Exporter 1.000x284978"
	},
	"scenes":[{
		"nodes":[0]
	}],
	"nodes":[{
		"name":"bowl.1",
		"mesh":0
	}],
	"meshes":[{
		"name":"bowl.1",
		"primitives":[{
			"attributes":{
				"POSITION":1,
				"NORMAL":2,
				"TEXCOORD_0":3
			},
			"indices":0
		}]
	}],
	"accessors":[{
		"bufferView":0,
		"type":"SCALAR",
		"count":21504,
		"componentType":5123,
		"byteOffset":0,
		"min":[0],
		"max":[3971]
	},
	{
		"bufferView":1,
		"type":"VEC3",
		"count":3972,
		"componentType":5126,
		"byteOffset":0,
		"min":[-6.754670143127441,
		-2.5257568359375,
		-6.754670143127441],
		"max":[6.754670143127441,
		3.0,
		6.754670143127441]
	},
	{
		"bufferView":1,
		"type":"VEC3",
		"count":3972,
		"componentType":5126,
		"byteOffset":12,
		"min":[-1.0,
		-1.0,
		-1.0],
		"max":[1.0,
		1.0,
		1.0]
	},
	{
		"bufferView":1,
		"type":"VEC2",
		"count":3972,
		"componentType":5126,
		"byteOffset":24,
		"min":[0.03288821130990982,
		0.03288821130990982],
		"max":[0.9671117663383484,
		0.9671117067337036]
	}],
	"bufferViews":[{
		"buffer":0,
		"byteOffset":0,
		"byteLength":43008,
		"target":34963
	},
	{
		"buffer":0,
		"byteOffset":43008,
		"byteLength":127104,
		"target":34962,
		"byteStride":32
	}],
	"buffers":[{
		"uri":"data:application/octet-stream;base64,",
		"byteLength":170112
	}]
}