{
	"asset":{
		"version":"2.0",
		"generator":"Created using the official Cinema 4D glTF Exporter 1.000x284978"
	},
	"scenes":[{
		"nodes":[0]
	}],
	"nodes":[{
		"name":"box",
		"children":[1]
	},
	{
		"name":"Boole",
		"children":[2,
		3]
	},
	{
		"name":"Cube",
		"mesh":0
	},
	{
		"name":"Cube.1",
		"mesh":1,
		"translation":[0.0,
		0.0,
		28.237289428710939],
		"rotation":[0.0,
		0.0,
		0.0,
		-1.0],
		"scale":[1.0,
		1.0,
		1.0]
	}],
	"meshes":[{
		"name":"Cube",
		"primitives":[{
			"attributes":{
				"POSITION":1,
				"NORMAL":2,
				"TEXCOORD_0":3
			},
			"indices":0
		}]
	},
	{
		"name":"Cube.1",
		"primitives":[{
			"attributes":{
				"POSITION":5,
				"NORMAL":6,
				"TEXCOORD_0":7
			},
			"indices":4
		}]
	}],
	"accessors":[{
		"bufferView":0,
		"type":"SCALAR",
		"count":54,
		"componentType":5123,
		"byteOffset":0,
		"min":[0],
		"max":[27]
	},
	{
		"bufferView":1,
		"type":"VEC3",
		"count":28,
		"componentType":5126,
		"byteOffset":0,
		"min":[-250.0,
		-250.0,
		-100.0],
		"max":[250.0,
		250.0,
		100.0]
	},
	{
		"bufferView":1,
		"type":"VEC3",
		"count":28,
		"componentType":5126,
		"byteOffset":12,
		"min":[-1.0,
		-1.0,
		-1.0],
		"max":[1.0,
		1.0,
		1.0]
	},
	{
		"bufferView":1,
		"type":"VEC2",
		"count":28,
		"componentType":5126,
		"byteOffset":24,
		"min":[0.0,
		0.0],
		"max":[1.0,
		1.0]
	},
	{
		"bufferView":2,
		"type":"SCALAR",
		"count":30,
		"componentType":5123,
		"byteOffset":0,
		"min":[0],
		"max":[19]
	},
	{
		"bufferView":3,
		"type":"VEC3",
		"count":20,
		"componentType":5126,
		"byteOffset":0,
		"min":[-225.0,
		-225.0,
		-100.0],
		"max":[225.0,
		225.0,
		71.76271057128906]
	},
	{
		"bufferView":3,
		"type":"VEC3",
		"count":20,
		"componentType":5126,
		"byteOffset":12,
		"min":[-1.0,
		-1.0,
		0.0],
		"max":[1.0,
		1.0,
		1.0]
	},
	{
		"bufferView":3,
		"type":"VEC2",
		"count":20,
		"componentType":5126,
		"byteOffset":24,
		"min":[0.0,
		0.0],
		"max":[1.0,
		1.0]
	}],
	"bufferViews":[{
		"buffer":0,
		"byteOffset":0,
		"byteLength":108,
		"target":34963
	},
	{
		"buffer":0,
		"byteOffset":108,
		"byteLength":896,
		"target":34962,
		"byteStride":32
	},
	{
		"buffer":1,
		"byteOffset":0,
		"byteLength":60,
		"target":34963
	},
	{
		"buffer":1,
		"byteOffset":60,
		"byteLength":640,
		"target":34962,
		"byteStride":32
	}],
	"buffers":[{
		"uri":"data:application/octet-stream;base64,",
		"byteLength":1004
	},
	{
		"uri":"data:application/octet-stream;base64,",
		"byteLength":700
	}]
}