{
	"asset":{
		"version":"2.0",
		"generator":"Created using the official Cinema 4D glTF Exporter 1.000x284978"
	},
	"scenes":[{
		"nodes":[0]
	}],
	"nodes":[{
		"name":"box.1",
		"mesh":0
	}],
	"meshes":[{
		"name":"box.1",
		"primitives":[{
			"attributes":{
				"POSITION":1,
				"NORMAL":2,
				"TEXCOORD_0":3
			},
			"indices":0
		}]
	}],
	"accessors":[{
		"bufferView":0,
		"type":"SCALAR",
		"count":84,
		"componentType":5123,
		"byteOffset":0,
		"min":[0],
		"max":[49]
	},
	{
		"bufferView":1,
		"type":"VEC3",
		"count":50,
		"componentType":5126,
		"byteOffset":0,
		"min":[-50.0,
		-20.0,
		-50.0],
		"max":[50.0,
		20.0,
		50.0]
	},
	{
		"bufferView":1,
		"type":"VEC3",
		"count":50,
		"componentType":5126,
		"byteOffset":12,
		"min":[-1.0,
		-1.0,
		-1.0],
		"max":[1.0,
		1.0,
		1.0]
	},
	{
		"bufferView":1,
		"type":"VEC2",
		"count":50,
		"componentType":5126,
		"byteOffset":24,
		"min":[0.0,
		0.0],
		"max":[1.0,
		1.0]
	}],
	"bufferViews":[{
		"buffer":0,
		"byteOffset":0,
		"byteLength":168,
		"target":34963
	},
	{
		"buffer":0,
		"byteOffset":168,
		"byteLength":1600,
		"target":34962,
		"byteStride":32
	}],
	"buffers":[{
		"uri":"data:application/octet-stream;base64,",
		"byteLength":1768
	}]
}